<?xml version="1.0" encoding="utf-8"?>
<!-- Generator: Adobe Illustrator 20.0.0, SVG Export Plug-In . SVG Version: 6.00 Build 0)  -->
<svg version="1.1" id="Layer_1" xmlns="http://www.w3.org/2000/svg" xmlns:xlink="http://www.w3.org/1999/xlink" x="0px" y="0px"
	 viewBox="0 0 43 43" style="enable-background:new 0 0 43 43;" xml:space="preserve">
<style type="text/css">
	.st0{fill:#FEF59E;}
	.st1{fill:#717273;}
</style>
<path class="st0" d="M42.1,37.9c0,2.3-1.9,4.2-4.2,4.2H5.1c-2.3,0-4.2-1.9-4.2-4.2V5.1c0-2.3,1.9-4.2,4.2-4.2h32.7
	c2.3,0,4.2,1.9,4.2,4.2V37.9z"/>
<path class="st1" d="M37.6,43H5.4c-3,0-5.4-2.4-5.4-5.4V5.4C0,2.4,2.4,0,5.4,0h32.2c3,0,5.4,2.4,5.4,5.4v32.2
	C43,40.6,40.6,43,37.6,43z M5.4,2.6c-1.6,0-2.8,1.3-2.8,2.8v32.2c0,1.6,1.3,2.8,2.8,2.8h32.2c1.6,0,2.8-1.3,2.8-2.8V5.4
	c0-1.6-1.3-2.8-2.8-2.8H5.4z"/>
<path class="st1" d="M21,11.8c-0.4-0.3-1-0.7-1.7-1c-0.8-0.3-1.6-0.5-2.7-0.5c-1,0-2,0.3-2.8,0.8c-0.9,0.6-1.6,1.3-2.3,2.3
	c-0.6,1-1.1,2.2-1.5,3.7c-0.4,1.4-0.5,3-0.5,4.8s0.2,3.3,0.5,4.8c0.3,1.4,0.8,2.6,1.5,3.7c0.6,1,1.4,1.8,2.2,2.3
	c0.9,0.6,1.8,0.8,2.9,0.8c1.1,0,2-0.1,2.8-0.4c0.8-0.3,1.5-0.7,2-1.1l-0.5,3.9c-0.5,0.3-1.2,0.6-2,0.8C18,36.9,17,37,15.8,37
	c-1.6,0-3-0.3-4.4-1c-1.3-0.7-2.5-1.7-3.5-3c-1-1.3-1.7-2.9-2.3-4.7c-0.6-1.9-0.8-3.9-0.8-6.3c0-2.3,0.3-4.4,0.8-6.3
	C6.2,13.8,7,12.2,8,10.9c1-1.3,2.1-2.3,3.5-3c1.3-0.7,2.8-1,4.4-1c1.4,0,2.5,0.2,3.4,0.5c0.9,0.3,1.6,0.6,2.2,1L21,11.8z"/>
<polygon class="st1" points="24.7,36.6 24.7,7.3 37.2,7.3 37.2,10.6 29.1,10.6 29.1,20.3 35.9,20.3 35.9,23.5 29.1,23.5 29.1,33.4 
	38.2,33.4 38.2,36.6 "/>
</svg>
