<?xml version="1.0" encoding="utf-8"?>
<!-- Generator: Adobe Illustrator 20.0.0, SVG Export Plug-In . SVG Version: 6.00 Build 0)  -->
<svg version="1.1" id="Layer_1" xmlns="http://www.w3.org/2000/svg" xmlns:xlink="http://www.w3.org/1999/xlink" x="0px" y="0px"
	 viewBox="0 0 43 43" style="enable-background:new 0 0 43 43;" xml:space="preserve">
<style type="text/css">
	.st0{fill:#FEF59E;}
	.st1{fill:#717273;}
	.st2{fill:#6D6E71;}
</style>
<path class="st0" d="M41.6,37.5c0,2.3-1.8,4.1-4.1,4.1h-32c-2.3,0-4.1-1.8-4.1-4.1v-32c0-2.3,1.8-4.1,4.1-4.1h31.9
	c2.3,0,4.1,1.8,4.1,4.1L41.6,37.5L41.6,37.5z"/>
<path class="st1" d="M37.5,0h-32C2.5,0,0,2.5,0,5.5v32c0,3,2.5,5.5,5.5,5.5h32.1c3,0,5.5-2.5,5.4-5.6V5.5C43,2.5,40.5,0,37.5,0z
	 M40.2,37.5c0,1.5-1.2,2.7-2.7,2.7h-32c-1.5,0-2.7-1.2-2.7-2.7V5.6c0-1.5,1.2-2.7,2.7-2.7V2.8h32c1.5,0,2.7,1.2,2.7,2.7V37.5z"/>
<path class="st2" d="M13.5,37c-4.9,0-8.3-6.1-8.3-15c0-9,3.3-15,8.3-15c4.9,0,8.2,6.1,8.2,15C21.7,30.9,18.4,37,13.5,37 M13.5,10.4
	c-2.6,0-4.8,4.7-4.8,11.6c0,6.9,2.2,11.5,4.8,11.5c2.5,0,4.7-4.7,4.7-11.5C18.2,15.1,16,10.4,13.5,10.4"/>
<path class="st2" d="M35.2,28.6v8h-3.9v-8h-8.4l-0.5-3.2l9.3-18.2h3.5v18.3h2.3v3.1H35.2z M31.4,14.3c-0.5,1.3-1.1,2.8-1.6,3.8
	l-3.7,7.5h5.3v-7.5c0-1.2,0.1-2.5,0.2-3.7L31.4,14.3z"/>
</svg>
